<svg t="1689947750543" class="icon" viewBox="0 0 1024 1024" version="1.1" xmlns="http://www.w3.org/2000/svg" p-id="5178" width="200" height="200"><path d="M348.494367 94.040816H219.428571A73.142857 73.142857 0 0 0 146.285714 167.183673v208.979592A31.346939 31.346939 0 0 0 177.632653 407.510204h668.734694a31.346939 31.346939 0 0 0 31.346939-31.346939v-93.246694a73.142857 73.142857 0 0 0-73.142857-73.142857H487.068735a10.44898 10.44898 0 0 1-7.878531-3.594449l-75.441633-86.93551A73.142857 73.142857 0 0 0 348.473469 94.040816zM219.428571 156.734694h129.065796a10.44898 10.44898 0 0 1 7.878531 3.594449l75.441633 86.93551a73.142857 73.142857 0 0 0 55.254204 25.202939H804.571429l1.880816 0.188081a10.44898 10.44898 0 0 1 8.568163 10.260898V344.816327h-606.040816V167.183673a10.44898 10.44898 0 0 1 10.448979-10.448979z" fill="#ffffff" p-id="5179"></path><path d="M950.857143 344.816327H73.142857a31.346939 31.346939 0 0 0-31.096163 35.359346l60.186122 465.125878A73.142857 73.142857 0 0 0 174.769633 909.061224h674.460734a73.142857 73.142857 0 0 0 72.515919-63.738775l60.186122-465.146776A31.346939 31.346939 0 0 0 950.857143 344.816327z m-842.062367 62.693877h806.389551l-55.588572 429.745633a10.44898 10.44898 0 0 1-10.365388 9.11151H174.769633l-1.713633-0.146286a10.44898 10.44898 0 0 1-8.651755-8.965224L108.794776 407.510204z" fill="#ffffff" p-id="5180"></path><path d="M637.387755 480.653061a31.346939 31.346939 0 0 1 3.009306 62.547592L637.387755 543.346939H386.612245a31.346939 31.346939 0 0 1-3.009306-62.547592L386.612245 480.653061h250.77551z" fill="#ffffff" p-id="5181"></path></svg>
